<?xml version="1.0" encoding="utf-8"?>
<!-- Generator: Adobe Illustrator 19.0.1, SVG Export Plug-In . SVG Version: 6.00 Build 0)  -->
<svg version="1.1" id="Layer_1" xmlns="http://www.w3.org/2000/svg" xmlns:xlink="http://www.w3.org/1999/xlink" x="0px" y="0px"
	 viewBox="-277 380 42.6 43" style="enable-background:new -277 380 42.6 43;" xml:space="preserve">
<style type="text/css">
	.st0{fill:#00C4B3;}
	.st1{fill:#22D3C5;}
	.st2{fill:#0075C9;}
	.st3{fill:#00A8E1;}
</style>
<g>
	<path class="st0" d="M-265.4,391.7l-2.8-2.8l0,20.1l0,0.9c0,0.4,0.1,0.9,0.2,1.5l22,7.8l5.5-2.4l0,0L-265.4,391.7z"/>
	<path class="st1" d="M-267.9,411.4L-267.9,411.4C-267.9,411.4-267.9,411.4-267.9,411.4C-267.9,411.4-267.9,411.4-267.9,411.4z
		 M-240.3,416.7l-5.5,2.4l-22-7.8c0.4,1.6,1.4,3.4,2.4,4.4l7.2,7.1l16,0L-240.3,416.7L-240.3,416.7z"/>
	<path class="st2" d="M-268.1,388.9l-8.6,12.9c-0.7,0.8-0.4,2.3,0.8,3.5l4.9,5l3.1,1.1c-0.1-0.5-0.2-1-0.2-1.5l0-0.9L-268.1,388.9
		L-268.1,388.9z"/>
	<path class="st2" d="M-245.7,389.2c-0.5-0.1-1-0.2-1.5-0.2l-1,0l-20,0l27.8,27.8h0l2.4-5.5L-245.7,389.2z"/>
	<path class="st3" d="M-245.7,389.2C-245.7,389.2-245.7,389.2-245.7,389.2L-245.7,389.2C-245.7,389.2-245.7,389.2-245.7,389.2z
		 M-241.2,391.5c-1-1-2.8-1.9-4.4-2.4l7.8,22l-2.4,5.5h0l6-1.9l0-16.4L-241.2,391.5z"/>
	<path class="st0" d="M-246.8,386.1l-5-4.9c-1.2-1.1-2.7-1.5-3.5-0.8l-12.9,8.6l20,0l1,0c0.4,0,0.9,0.1,1.5,0.2L-246.8,386.1z"/>
</g>
</svg>
