<?xml version="1.0" encoding="utf-8"?>
<!-- Generator: Adobe Illustrator 19.0.1, SVG Export Plug-In . SVG Version: 6.00 Build 0)  -->
<svg version="1.1" id="Layer_1" xmlns="http://www.w3.org/2000/svg" xmlns:xlink="http://www.w3.org/1999/xlink" x="0px" y="0px"
	 viewBox="278 342.8 415.8 110.5" style="enable-background:new 278 342.8 415.8 110.5;" xml:space="preserve">
<style type="text/css">
	.st0{fill:#231F20;}
	.st1{fill:#00C4B3;}
	.st2{fill:#22D3C5;}
	.st3{fill:#0075C9;}
	.st4{fill:#00A8E1;}
</style>
<path class="st0" d="M489.8,370c9.1,8.3,13.6,19.7,13.6,34.4c0,14.8-4.4,26.5-13.3,35.1c-8.8,8.6-22.3,12.9-40.4,12.9h-31.9v-94.6
	h33C467.7,357.9,480.7,361.7,489.8,370z M474.2,426.2c5.2-4.9,7.8-12,7.8-21.4c0-9.3-2.6-16.7-7.8-21.7c-5.2-5-13.2-7.7-24-7.7H438
	v58.1h13.8C461.5,433.5,469,431.1,474.2,426.2z"/>
<path class="st0" d="M578.6,452.5h-18.9v-9c-5.4,6.6-11.7,9.9-19.4,9.9c-7.7,0-14.2-2.2-19.5-6.7c-5.3-4.5-7.9-10.5-7.9-17.9
	c0-7.5,2.7-13,8.2-16.7c5.4-3.7,12.9-5.5,22.3-5.5h15v-0.6c0-7.8-4-11.7-12.2-11.7c-3.5,0-7.2,0.7-11.2,2.1c-3.9,1.4-7.2,3.1-10,5.2
	l-9.1-13.2c9.6-7,20.6-10.5,32.9-10.5c8.9,0,15.9,2.2,21.6,6.7c5.6,4.4,8.2,11.5,8.2,21.1L578.6,452.5L578.6,452.5z M558.3,424.4v-3
	h-12.7c-8.2,0-12.2,2.3-12.2,7.3c0,2.6,1,4.5,2.9,5.9c1.9,1.4,4.7,2,8.4,2c3.6,0,6.8-1.1,9.5-3.4C557,431.1,558.3,428.1,558.3,424.4
	z"/>
<path class="st0" d="M632.3,397.1c-6.1,0-10.9,2.1-13.9,6.5c-3,4.3-4.8,10-4.8,17.1v31.9h-20.3v-72.9h20.3v9.3
	c2.7-3,6.4-5.5,10.3-7.6c3.9-2.1,8.6-3.2,12.6-3.3v19.2L632.3,397.1L632.3,397.1z"/>
<path class="st0" d="M669.1,394.4v32.2c0,2.8,0.8,5,2.3,6.6c1.4,1.6,3.2,2.4,5.2,2.4c3.8,0,7-1.7,9.7-5.2l7.6,14.3
	c-6.3,5.8-13,8.7-20,8.7c-7,0-12.9-2.3-17.8-6.9c-4.9-4.6-7.2-10.9-7.2-18.9v-69.6h20.3v20.3h21.6l-11.1,16.2L669.1,394.4
	L669.1,394.4z"/>
<path class="st1" d="M307.7,372.7l-7.1-7.1l0,51.2l0.1,2.4c0,1.1,0.2,2.4,0.6,3.7l56.2,19.8l14-6.2l0,0L307.7,372.7z"/>
<path class="st2" d="M301.3,422.9L301.3,422.9C301.3,422.9,301.3,422.9,301.3,422.9C301.3,422.9,301.3,422.9,301.3,422.9z
	 M371.5,436.5l-14,6.2l-56.1-19.8c1.1,4.1,3.4,8.7,6,11.3l18.3,18.2l40.8,0.1L371.5,436.5L371.5,436.5z"/>
<path class="st3" d="M300.8,365.6l-21.8,33c-1.8,1.9-0.9,5.9,2,8.9l12.6,12.7l7.9,2.8c-0.3-1.3-0.6-2.6-0.6-3.7l-0.1-2.4
	L300.8,365.6L300.8,365.6z"/>
<path class="st3" d="M357.9,366.2c-1.3-0.3-2.6-0.5-3.7-0.6l-2.5-0.1l-51.1,0l70.9,70.9h0l6.2-14L357.9,366.2z"/>
<path class="st4" d="M357.8,366.2C357.9,366.2,357.9,366.2,357.8,366.2L357.8,366.2C357.9,366.2,357.9,366.2,357.8,366.2z
	 M369.2,372.2c-2.6-2.6-7.1-5-11.3-6l19.8,56.2l-6.2,14h0l15.2-4.9l0-41.7L369.2,372.2z"/>
<path class="st1" d="M355.1,358.4l-12.7-12.6c-2.9-2.9-6.9-3.8-8.9-2l-33,21.8l51.1,0l2.5,0.1c1.1,0,2.4,0.2,3.7,0.6L355.1,358.4z"
	/>
</svg>
