<?xml version="1.0" encoding="utf-8"?>
<!-- Generator: Adobe Illustrator 19.0.1, SVG Export Plug-In . SVG Version: 6.00 Build 0)  -->
<svg version="1.1" id="Layer_1" xmlns="http://www.w3.org/2000/svg" xmlns:xlink="http://www.w3.org/1999/xlink" x="0px" y="0px"
	 viewBox="-223 374.2 163.1 43.3" style="enable-background:new -223 374.2 163.1 43.3;" xml:space="preserve">
<style type="text/css">
	.st0{fill:#FFFFFF;}
	.st1{fill:#00C4B3;}
	.st2{fill:#22D3C5;}
	.st3{fill:#0075C9;}
	.st4{fill:#00A8E1;}
</style>
<g>
	<path class="st0" d="M-139.9,384.9c3.6,3.3,5.3,7.7,5.3,13.5c0,5.8-1.7,10.4-5.2,13.8c-3.5,3.4-8.8,5.1-15.9,5.1h-12.5v-37.1h12.9
		C-148.6,380.1-143.5,381.6-139.9,384.9z M-146.1,406.9c2-1.9,3.1-4.7,3.1-8.4c0-3.7-1-6.5-3.1-8.5c-2-2-5.2-3-9.4-3h-4.8v22.8h5.4
		C-151,409.8-148.1,408.8-146.1,406.9z"/>
	<path class="st0" d="M-105.1,417.2h-7.4v-3.5c-2.1,2.6-4.6,3.9-7.6,3.9c-3,0-5.6-0.9-7.6-2.6c-2.1-1.8-3.1-4.1-3.1-7
		c0-2.9,1.1-5.1,3.2-6.5c2.1-1.5,5-2.1,8.7-2.1h5.9V399c0-3.1-1.6-4.6-4.8-4.6c-1.4,0-2.8,0.3-4.4,0.8c-1.5,0.6-2.8,1.2-3.9,2.1
		l-3.6-5.2c3.8-2.7,8.1-4.1,12.9-4.1c3.5,0,6.3,0.9,8.5,2.6c2.2,1.7,3.2,4.5,3.2,8.3L-105.1,417.2L-105.1,417.2z M-113.1,406.2V405
		h-5c-3.2,0-4.8,0.9-4.8,2.9c0,1,0.4,1.8,1.1,2.3c0.8,0.6,1.9,0.8,3.3,0.8c1.4,0,2.7-0.4,3.7-1.3
		C-113.6,408.8-113.1,407.7-113.1,406.2z"/>
	<path class="st0" d="M-84,395.5c-2.4,0-4.3,0.8-5.4,2.5c-1.2,1.7-1.9,3.9-1.9,6.7v12.5h-7.9v-28.6h7.9v3.6c1.1-1.2,2.5-2.2,4-3
		c1.5-0.8,3.4-1.2,5-1.3v7.5L-84,395.5L-84,395.5z"/>
	<path class="st0" d="M-69.6,394.4v12.6c0,1.1,0.3,2,0.9,2.6c0.6,0.6,1.3,0.9,2,0.9c1.5,0,2.8-0.7,3.8-2l3,5.6
		c-2.5,2.3-5.1,3.4-7.9,3.4c-2.8,0-5.1-0.9-7-2.7c-1.9-1.8-2.8-4.3-2.8-7.4v-27.3h7.9v7.9h8.5l-4.4,6.4L-69.6,394.4L-69.6,394.4z"/>
	<path class="st1" d="M-211.4,385.9l-2.8-2.8l0,20.1l0,0.9c0,0.4,0.1,0.9,0.2,1.5l22,7.8l5.5-2.4l0,0L-211.4,385.9z"/>
	<path class="st2" d="M-213.9,405.6L-213.9,405.6C-213.9,405.6-213.9,405.6-213.9,405.6C-213.9,405.6-213.9,405.6-213.9,405.6z
		 M-186.3,411l-5.5,2.4l-22-7.8c0.4,1.6,1.4,3.4,2.4,4.4l7.2,7.1l16,0L-186.3,411L-186.3,411z"/>
	<path class="st3" d="M-214.1,383.1l-8.6,12.9c-0.7,0.8-0.4,2.3,0.8,3.5l4.9,5l3.1,1.1c-0.1-0.5-0.2-1-0.2-1.5l0-0.9L-214.1,383.1
		L-214.1,383.1z"/>
	<path class="st3" d="M-191.7,383.4c-0.5-0.1-1-0.2-1.5-0.2l-1,0l-20,0l27.8,27.8h0l2.4-5.5L-191.7,383.4z"/>
	<path class="st4" d="M-191.7,383.4C-191.7,383.4-191.7,383.4-191.7,383.4L-191.7,383.4C-191.7,383.4-191.7,383.4-191.7,383.4z
		 M-187.2,385.8c-1-1-2.8-1.9-4.4-2.4l7.8,22l-2.4,5.5h0l6-1.9l0-16.4L-187.2,385.8z"/>
	<path class="st1" d="M-192.8,380.3l-5-4.9c-1.2-1.1-2.7-1.5-3.5-0.8l-12.9,8.6l20,0l1,0c0.4,0,0.9,0.1,1.5,0.2L-192.8,380.3z"/>
</g>
</svg>
