<?xml version="1.0" encoding="utf-8"?>
<!-- Generator: Adobe Illustrator 19.1.0, SVG Export Plug-In . SVG Version: 6.00 Build 0)  -->
<svg version="1.1" id="Layer_1" xmlns="http://www.w3.org/2000/svg" xmlns:xlink="http://www.w3.org/1999/xlink" x="0px" y="0px"
	 viewBox="0 0 165 40" style="enable-background:new 0 0 165 40;" xml:space="preserve">
<style type="text/css">
	.st0{fill:#FFFFFF;}
	.st1{fill:#42B1E8;}
	.st2{fill:#2DBAAC;}
	.st3{fill:#0375BF;}
	.st4{fill:#54C0B6;}
</style>
<g>
	<g>
		<path class="st0" d="M62.7,1.4h10.3c11.2,0,18.4,5.6,18.4,18.2s-7.2,18.5-17.9,18.5H62.7V1.4z M72.6,31.4c6.2,0,10.4-3,10.4-11.8
			S78.8,8.1,72.6,8.1H71v23.3H72.6z"/>
		<path class="st0" d="M109.7,20.1c-0.2-2.5-1.4-4-4.4-4c-2.4,0-4.7,1-7.4,2.5L95,13.2c3.5-2.1,7.5-3.7,11.9-3.7
			c7.1,0,11.1,4,11.1,12.6v16h-6.7l-0.6-2.9h-0.2c-2.4,2.1-5,3.5-8.1,3.5c-5.1,0-8.3-3.7-8.3-8.4C94,24.5,98.7,21.3,109.7,20.1z
			 M105.1,32.3c1.9,0,3.1-0.9,4.6-2.4v-4.9c-5.9,0.8-7.8,2.5-7.8,4.6C101.9,31.5,103.1,32.3,105.1,32.3z"/>
		<path class="st0" d="M122.8,10.2h6.7l0.6,4.9h0.2c2-3.8,5.1-5.6,7.9-5.6c1.6,0,2.5,0.2,3.3,0.6l-1.3,7.1c-1-0.3-1.9-0.4-3-0.4
			c-2.1,0-4.7,1.3-6.1,5.1v16.2h-8.3V10.2z"/>
		<path class="st0" d="M147.4,16.7h-3.8v-6.1l4.3-0.3l1-7.4h6.9v7.4h6.7v6.5h-6.7v11.2c0,3.1,1.4,4.4,3.6,4.4c0.9,0,1.9-0.3,2.6-0.6
			l1.3,6c-1.5,0.4-3.5,1-6.2,1c-6.9,0-9.6-4.3-9.6-10.8V16.7z"/>
	</g>
	<g>
		<g>
			<path class="st1" d="M35.3,12c2.9,1.5,14.9,7.6,14.9,7.6S40.1,9.5,37.1,6.5c-5.4-5.4-12.1-5.2-12.1-5.2c-6,0-17.4,0-17.4,0l2.1,8
				c6.7,0,15.5,0,17.4,0C30.2,9.2,32.4,10.6,35.3,12z"/>
			<path class="st2" d="M1.8,9.2l10.6,10.4L9.7,9.2C5.3,9.2,1.8,9.2,1.8,9.2z"/>
			<path class="st3" d="M35.3,12c-2.9-1.5-5.2-2.8-8.3-2.8c-1.9,0-10.7,0-17.4,0l2.7,10.4h37.9C50.3,19.7,38.3,13.5,35.3,12z"/>
			<path class="st3" d="M35.3,27.3c-2.9,1.5-5.2,2.8-8.3,2.8c-1.9,0-10.7,0-17.4,0l-2.1,8c0,0,11.3,0,17.4,0c0,0,6.8,0.1,12.1-5.2
				c3-3,13.2-13.2,13.2-13.2S38.3,25.8,35.3,27.3z"/>
			<path class="st4" d="M1.8,30.1c0,0,3.5,0,7.8,0l2.7-10.4L1.8,30.1z"/>
			<path class="st2" d="M35.3,27.3c2.9-1.5,14.9-7.6,14.9-7.6H12.4L9.7,30.1c6.7,0,15.5,0,17.4,0C30.2,30.1,32.4,28.8,35.3,27.3z"/>
		</g>
	</g>
</g>
</svg>
