<?xml version="1.0" encoding="utf-8"?>
<!-- Generator: Adobe Illustrator 19.1.0, SVG Export Plug-In . SVG Version: 6.00 Build 0)  -->
<svg version="1.1" id="Layer_1" xmlns="http://www.w3.org/2000/svg" xmlns:xlink="http://www.w3.org/1999/xlink" x="0px" y="0px"
	 viewBox="0 0 50 40" style="enable-background:new 0 0 50 40;" xml:space="preserve">
<style type="text/css">
	.st0{fill:#42B1E8;}
	.st1{fill:#2DBAAC;}
	.st2{fill:#0375BF;}
	.st3{fill:#54C0B6;}
</style>
<g>
	<g>
		<path class="st0" d="M34.3,12.4c2.9,1.5,14.9,7.6,14.9,7.6S39,9.8,36,6.8c-5.4-5.4-12.1-5.2-12.1-5.2c-6,0-17.4,0-17.4,0l2.1,8
			c6.7,0,15.5,0,17.4,0C29.1,9.6,31.4,10.9,34.3,12.4z"/>
		<path class="st1" d="M0.8,9.6L11.3,20L8.6,9.6C4.2,9.6,0.8,9.6,0.8,9.6z"/>
		<path class="st2" d="M34.3,12.4c-2.9-1.5-5.2-2.8-8.3-2.8c-1.9,0-10.7,0-17.4,0L11.3,20h37.9C49.2,20,37.2,13.9,34.3,12.4z"/>
		<path class="st2" d="M34.3,27.6c-2.9,1.5-5.2,2.8-8.3,2.8c-1.9,0-10.7,0-17.4,0l-2.1,8c0,0,11.3,0,17.4,0c0,0,6.8,0.1,12.1-5.2
			c3-3,13.2-13.2,13.2-13.2S37.2,26.1,34.3,27.6z"/>
		<path class="st3" d="M0.8,30.4c0,0,3.5,0,7.8,0L11.3,20L0.8,30.4z"/>
		<path class="st1" d="M34.3,27.6c2.9-1.5,14.9-7.6,14.9-7.6H11.3L8.6,30.4c6.7,0,15.5,0,17.4,0C29.1,30.4,31.4,29.1,34.3,27.6z"/>
	</g>
</g>
</svg>
